<svg width="26" height="26" viewBox="0 0 26 26" fill="none" xmlns="http://www.w3.org/2000/svg">
<path d="M23.8165 11.7888C23.2184 11.7888 22.7332 11.3036 22.7332 10.7055C22.7332 7.66678 21.5501 4.81113 19.4019 2.66166C18.9784 2.23815 18.9784 1.55359 19.4019 1.12989C19.8254 0.706379 20.5101 0.706379 20.9336 1.12989C23.4915 3.6876 24.8997 7.08835 24.8997 10.7055C24.8997 11.3036 24.4145 11.7888 23.8165 11.7888Z" fill="#006E83"/>
<path d="M2.14967 11.7888C1.5518 11.7888 1.06641 11.3036 1.06641 10.7055C1.06641 7.08835 2.47479 3.6876 5.0325 1.12989C5.45601 0.706379 6.14076 0.706379 6.56427 1.12989C6.98798 1.55359 6.98798 2.23815 6.56427 2.66166C4.41599 4.80994 3.23314 7.66678 3.23314 10.7055C3.23314 11.3036 2.74774 11.7888 2.14967 11.7888Z" fill="#006E83"/>
<path d="M23.1437 18.3225C21.5056 16.9379 20.5664 14.9142 20.5664 12.7703V9.75C20.5664 5.93784 17.7345 2.78206 14.0664 2.25342V1.08327C14.0664 0.484207 13.581 0 12.9831 0C12.3851 0 11.8997 0.484207 11.8997 1.08327V2.25342C8.23051 2.78206 5.39966 5.93784 5.39966 9.75V12.7703C5.39966 14.9142 4.4604 16.9379 2.81279 18.331C2.39127 18.6919 2.14966 19.2161 2.14966 19.7708C2.14966 20.8163 3.00005 21.6667 4.04562 21.6667H21.9206C22.966 21.6667 23.8164 20.8163 23.8164 19.7708C23.8164 19.2161 23.5748 18.6919 23.1437 18.3225Z" fill="#006E83"/>
<path d="M12.9831 26C14.9449 26 16.5862 24.6013 16.9633 22.75H9.00293C9.37982 24.6013 11.0211 26 12.9831 26Z" fill="#006E83"/>
</svg>
