<svg width="27" height="23" viewBox="0 0 27 23" fill="none" xmlns="http://www.w3.org/2000/svg">
<path d="M21.3059 0.871704C21.1961 0.778177 21.0468 0.7262 20.8916 0.727601C20.7368 0.728535 20.5887 0.780044 20.4774 0.871704L12.1219 7.98908L12.0987 8.00915L12.087 8.01911C12.0755 8.03405 12.0579 8.04899 12.0462 8.06378C12.0462 8.06876 12.0404 8.06876 12.0404 8.07374C12.0287 8.08852 12.0227 8.09864 12.0112 8.11342C12.0051 8.1184 12.0051 8.12353 11.9995 8.12836C11.9936 8.1433 11.988 8.15326 11.9819 8.1682C11.9819 8.17318 11.9761 8.17318 11.9761 8.178L10.4881 12.0003C10.4169 12.1782 10.4712 12.3753 10.6284 12.5073C10.7386 12.5999 10.8875 12.6517 11.0424 12.6514C11.1058 12.6503 11.1688 12.6421 11.2293 12.6265L15.7047 11.3542C15.7103 11.3542 15.7103 11.3542 15.7162 11.3492C15.7346 11.3447 15.7525 11.338 15.7686 11.3294C15.7732 11.3288 15.7774 11.3271 15.7805 11.3243C15.7978 11.3145 15.8212 11.3045 15.8387 11.2944C15.8561 11.2845 15.8736 11.2695 15.8912 11.2597C15.8972 11.2549 15.9029 11.2549 15.9029 11.2498C15.9087 11.2448 15.9204 11.2398 15.9264 11.23L24.2873 4.10748C24.3967 4.01442 24.4581 3.88837 24.4581 3.75703C24.4581 3.62553 24.3967 3.49933 24.2873 3.40658L21.3059 0.871704ZM12.7872 9.26157L14.4385 10.6682L11.9644 11.369L12.7872 9.26157ZM15.518 10.1811L13.359 8.34218L20.8916 1.9254L23.0503 3.76434L15.518 10.1811Z" fill="#006E83"/>
<path d="M21.6251 10.0171C21.3032 10.0179 21.0425 10.24 21.0416 10.5142V19.8038C21.0388 20.6263 20.257 21.2923 19.2911 21.295H3.75924C2.79376 21.2923 2.01152 20.6263 2.00877 19.8038V6.57264C2.01152 5.7502 2.79376 5.08399 3.75924 5.0815H14.6641C14.9866 5.0815 15.2476 4.85897 15.2476 4.58446C15.2476 4.30994 14.9866 4.08741 14.6641 4.08741H3.75924C2.14816 4.08803 0.842528 5.2004 0.841797 6.57264V19.8038C0.842528 21.1761 2.14816 22.2884 3.75924 22.2889H19.2911C20.9022 22.2884 22.208 21.1761 22.2086 19.8038V10.5142C22.2077 10.24 21.947 10.0179 21.6251 10.0171Z" fill="#006E83"/>
</svg>
