<svg width="21" height="21" viewBox="0 0 21 21" fill="none" xmlns="http://www.w3.org/2000/svg">
<g clip-path="url(#clip0)">
<path d="M9.60218 19.3238H2.47859C2.21391 19.3238 1.97274 19.2011 1.8168 18.9872C1.66082 18.7731 1.61788 18.5058 1.69892 18.2537C2.50824 15.7375 4.9764 13.9802 7.70098 13.9802C8.96874 13.9802 10.1862 14.362 11.2217 15.0842C11.5926 15.3429 12.1029 15.2519 12.3617 14.881C12.6204 14.5101 12.5294 13.9998 12.1585 13.7411C11.6459 13.3835 11.0983 13.0919 10.5254 12.8692C11.2876 12.1762 11.7932 11.2058 11.8811 10.1192C13.0368 8.99337 14.5517 8.3765 16.1756 8.3765C17.4433 8.3765 18.6608 8.75827 19.6963 9.48047C20.0672 9.73916 20.5776 9.64823 20.8363 9.27732C21.095 8.90642 21.004 8.39606 20.6331 8.13734C20.1205 7.7798 19.5729 7.48814 19 7.26547C19.8408 6.50102 20.3694 5.39901 20.3694 4.17584C20.3694 1.87331 18.4961 0 16.1935 0C13.8909 0 12.0176 1.87331 12.0176 4.17592C12.0176 5.39413 12.542 6.4922 13.3769 7.25628C13.2626 7.30025 13.1492 7.34701 13.0366 7.39655C12.5243 7.62202 12.0424 7.89879 11.5944 8.22437C10.9764 6.68977 9.47204 5.60376 7.71887 5.60376C5.41625 5.60376 3.54298 7.47707 3.54298 9.77968C3.54298 10.9943 4.06429 12.0895 4.89486 12.8533C2.67395 13.6856 0.873155 15.473 0.140041 17.7524C-0.103099 18.5083 0.0256899 19.31 0.493432 19.9518C0.961092 20.5935 1.68461 20.9615 2.47863 20.9615H9.60222C10.0545 20.9615 10.421 20.5949 10.421 20.1427C10.421 19.6905 10.0544 19.3238 9.60218 19.3238ZM16.1936 1.63759C17.5932 1.63759 18.7318 2.77627 18.7318 4.17588C18.7318 5.5755 17.5932 6.71418 16.1936 6.71418C14.7939 6.71418 13.6553 5.5755 13.6553 4.17588C13.6553 2.77627 14.7939 1.63759 16.1936 1.63759ZM7.71891 7.24131C9.11853 7.24131 10.2572 8.37998 10.2572 9.7796C10.2572 11.1792 9.11853 12.3179 7.71891 12.3179C6.31929 12.3179 5.18062 11.1792 5.18062 9.7796C5.18062 8.37998 6.31929 7.24131 7.71891 7.24131Z" fill="#014D5B"/>
<path d="M20.6399 13.3745C20.2722 13.1112 19.7607 13.1959 19.4975 13.5636L15.4615 19.2011C15.3513 19.3289 15.2132 19.3565 15.1392 19.3614C15.063 19.3666 14.9151 19.3568 14.7883 19.236L12.1755 16.7272C11.8492 16.4139 11.3308 16.4245 11.0178 16.7507C10.7045 17.0769 10.7151 17.5952 11.0412 17.9084L13.6567 20.4197C14.0484 20.7926 14.5712 21 15.1092 21C15.1554 21 15.2018 20.9985 15.2481 20.9954C15.8341 20.9564 16.3813 20.6714 16.7492 20.2136C16.7588 20.2017 16.7679 20.1896 16.7768 20.1773L20.8291 14.5169C21.0923 14.1492 21.0076 13.6377 20.6399 13.3745Z" fill="#014D5B"/>
</g>
<defs>
<clipPath id="clip0">
<rect width="21" height="21" fill="white"/>
</clipPath>
</defs>
</svg>
