<svg width="15" height="21" viewBox="0 0 15 21" fill="none" xmlns="http://www.w3.org/2000/svg">
<path d="M13.4372 3.59615C12.1627 1.39673 9.89897 0.0530127 7.38164 0.00166113C7.27418 -0.000553711 7.16602 -0.000553711 7.05852 0.00166113C4.54123 0.0530127 2.27749 1.39673 1.00297 3.59615C-0.299766 5.84429 -0.335409 8.54476 0.90761 10.8199L6.11508 20.3514C6.11741 20.3557 6.11975 20.3599 6.12217 20.3641C6.35129 20.7623 6.76173 21 7.22016 21C7.67855 21 8.08899 20.7622 8.31807 20.3641C8.32049 20.3599 8.32282 20.3557 8.32516 20.3514L13.5326 10.8199C14.7756 8.54476 14.7399 5.84429 13.4372 3.59615ZM7.22008 9.51564C5.59172 9.51564 4.26695 8.19088 4.26695 6.56252C4.26695 4.93416 5.59172 3.60939 7.22008 3.60939C8.84844 3.60939 10.1732 4.93416 10.1732 6.56252C10.1732 8.19088 8.84848 9.51564 7.22008 9.51564Z" fill="#014D5B"/>
</svg>
