<svg width="27" height="26" viewBox="0 0 27 26" fill="none" xmlns="http://www.w3.org/2000/svg">
<path d="M13.4473 0C6.03229 0 0 5.32238 0 11.8652C0 14.6291 1.09382 17.3073 3.08449 19.4301C3.47846 21.0546 3.00027 22.7757 1.81375 23.9622C1.31762 24.4584 1.66846 25.3125 2.37305 25.3125C4.62712 25.3125 6.8001 24.4296 8.41456 22.8723C10.012 23.4423 11.7022 23.7305 13.4473 23.7305C20.8622 23.7305 27 18.4081 27 11.8652C27 5.32238 20.8622 0 13.4473 0ZM7.22461 14.2383C5.91606 14.2383 4.85156 13.1738 4.85156 11.8652C4.85156 10.5567 5.91606 9.49219 7.22461 9.49219C8.53316 9.49219 9.59766 10.5567 9.59766 11.8652C9.59766 13.1738 8.53316 14.2383 7.22461 14.2383ZM13.5527 14.2383C12.2442 14.2383 11.1797 13.1738 11.1797 11.8652C11.1797 10.5567 12.2442 9.49219 13.5527 9.49219C14.8613 9.49219 15.9258 10.5567 15.9258 11.8652C15.9258 13.1738 14.8613 14.2383 13.5527 14.2383ZM19.8809 14.2383C18.5723 14.2383 17.5078 13.1738 17.5078 11.8652C17.5078 10.5567 18.5723 9.49219 19.8809 9.49219C21.1894 9.49219 22.2539 10.5567 22.2539 11.8652C22.2539 13.1738 21.1894 14.2383 19.8809 14.2383Z" fill="#006E83"/>
</svg>
