<svg width="17" height="19" viewBox="0 0 17 19" fill="none" xmlns="http://www.w3.org/2000/svg">
<path d="M16.5152 13.4261L12.7964 11.6448C12.6375 11.5691 12.461 11.5532 12.2933 11.5994C12.1256 11.6455 11.9759 11.7513 11.8667 11.9009L10.2198 14.1497C7.63511 12.7877 5.55505 10.4629 4.3364 7.57419L6.34855 5.73353C6.48258 5.61169 6.57745 5.44436 6.61879 5.25687C6.66013 5.06939 6.64569 4.87195 6.57765 4.69445L4.98388 0.53813C4.90921 0.346794 4.77714 0.190574 4.61045 0.0964089C4.44376 0.00224336 4.2529 -0.0239658 4.07077 0.0223006L0.617589 0.912941C0.441997 0.958259 0.285334 1.06876 0.173169 1.2264C0.0610036 1.38405 -4.04491e-05 1.57953 2.01088e-08 1.78094C2.01088e-08 11.2997 6.90305 19 15.4065 19C15.5868 19.0001 15.7618 18.9319 15.9029 18.8066C16.044 18.6812 16.1429 18.5061 16.1835 18.3098L16.9804 14.4503C17.0215 14.2458 16.9976 14.0316 16.9127 13.8447C16.8277 13.6577 16.6872 13.5097 16.5152 13.4261Z" fill="#014D5B"/>
</svg>
