<svg width="19" height="19" viewBox="0 0 19 19" fill="none" xmlns="http://www.w3.org/2000/svg">
<path d="M9.5 0C4.2691 0 0 4.2694 0 9.5C0 14.7309 4.2694 19 9.5 19C14.7309 19 19 14.7306 19 9.5C19 4.2691 14.7306 0 9.5 0ZM6.66625 1.60646C6.01446 2.43515 5.5408 3.45971 5.21305 4.45312H2.80625C3.78085 3.16372 5.11868 2.16374 6.66625 1.60646ZM2.0949 5.5627H4.89807C4.64624 6.61797 4.49758 7.76354 4.46188 8.94336H1.13221C1.21214 7.72962 1.55128 6.58198 2.0949 5.5627ZM2.0949 13.4336C1.55128 12.4143 1.21214 11.2704 1.13221 10.0566H4.46188C4.49758 11.2365 4.64624 12.3783 4.89807 13.4336H2.0949ZM2.80625 14.5469H5.21301C5.54069 15.54 6.01435 16.5647 6.66625 17.3935C5.11868 16.8363 3.78085 15.8363 2.80625 14.5469ZM8.94336 17.7922C7.70053 17.3745 6.84364 15.7789 6.39105 14.5469H8.94336V17.7922ZM8.94336 13.4336H6.04456C5.77403 12.3932 5.61372 11.2484 5.57561 10.0566H8.94336V13.4336ZM8.94336 8.94336H5.57561C5.61376 7.75155 5.77407 6.60677 6.04456 5.56641H8.94336V8.94336ZM8.94336 4.45312H6.39105C6.8436 3.22113 7.70053 1.62554 8.94336 1.20776V4.45312ZM16.9051 5.56641C17.4488 6.58569 17.7879 7.72962 17.8678 8.94336H14.5381C14.5024 7.76354 14.3538 6.62169 14.1019 5.56641H16.9051ZM16.1938 4.45312H13.787C13.4593 3.45997 12.9856 2.43527 12.3337 1.60646C13.8813 2.16374 15.2191 3.16372 16.1938 4.45312ZM10.0566 1.20776C11.2995 1.62554 12.1564 3.22109 12.6089 4.45312H10.0566V1.20776ZM10.0566 5.56641H12.9554C13.226 6.60677 13.3863 7.75155 13.4244 8.94336H10.0566V5.56641ZM10.0566 10.0529H13.4244C13.3862 11.2447 13.2259 12.3932 12.9554 13.4336H10.0566V10.0529ZM10.0566 17.7922V14.5432H12.6089C12.1564 15.7752 11.2995 17.3745 10.0566 17.7922ZM12.3337 17.3935C12.9855 16.5648 13.4592 15.5365 13.787 14.5432H16.1938C15.2191 15.8326 13.8813 16.8363 12.3337 17.3935ZM16.9051 13.4336H14.1019C14.3538 12.3783 14.5024 11.2327 14.5381 10.0529H17.8678C17.7879 11.2667 17.4487 12.4143 16.9051 13.4336Z" fill="#014D5B"/>
</svg>
