<svg width="24" height="24" viewBox="0 0 24 24" fill="none" xmlns="http://www.w3.org/2000/svg">
<g clip-path="url(#clip0)">
<path d="M13.0769 24H10.9231C10.1952 24 9.58078 23.433 9.49424 22.68L9.26443 20.804C8.80578 20.649 8.36347 20.458 7.94328 20.235L6.50674 21.396C5.92405 21.865 5.10386 21.811 4.59809 21.27L3.08366 19.695C2.56732 19.174 2.51539 18.321 2.96636 17.716L4.0827 16.221C3.86732 15.784 3.68366 15.324 3.53559 14.847L1.72789 14.608C1.00674 14.516 0.461548 13.877 0.461548 13.12V10.88C0.461548 10.123 1.00674 9.484 1.73078 9.394L3.53463 9.155C3.68366 8.678 3.86732 8.218 4.08174 7.781L2.96636 6.287C2.51443 5.681 2.56732 4.827 3.08847 4.301L4.60289 2.726C5.10386 2.189 5.92501 2.136 6.50578 2.604L7.94232 3.766C8.36251 3.543 8.80482 3.352 9.26443 3.197L9.49424 1.317C9.58078 0.567 10.1952 0 10.9231 0H13.0769C13.8048 0 14.4192 0.567 14.5058 1.32L14.7356 3.196C15.1952 3.351 15.6375 3.542 16.0577 3.765L17.4942 2.604C18.0779 2.135 18.8971 2.189 19.4029 2.731L20.9173 4.306C21.4337 4.827 21.4856 5.68 21.0346 6.285L19.9183 7.78C20.1337 8.217 20.3173 8.677 20.4654 9.154L22.2731 9.393C22.9933 9.484 23.5385 10.123 23.5385 10.88V13.12C23.5385 13.877 22.9933 14.516 22.2692 14.606L20.4654 14.845C20.3164 15.322 20.1327 15.782 19.9183 16.219L21.0346 17.713C21.4865 18.319 21.4337 19.172 20.9125 19.698L19.3981 21.273C18.8971 21.81 18.076 21.865 17.4952 21.395L16.0577 20.234C15.6375 20.458 15.1952 20.649 14.7365 20.803L14.5067 22.683C14.4192 23.433 13.8048 24 13.0769 24ZM7.89424 19.14C7.97405 19.14 8.05578 19.161 8.12886 19.203C8.65866 19.511 9.2327 19.759 9.83463 19.939C10.0192 19.994 10.1548 20.158 10.1789 20.356L10.4481 22.556C10.4769 22.807 10.6856 23 10.9231 23H13.0769C13.3144 23 13.5231 22.807 13.551 22.561L13.8212 20.357C13.8452 20.159 13.9808 19.995 14.1654 19.94C14.7673 19.76 15.3414 19.512 15.8712 19.204C16.0394 19.106 16.249 19.123 16.4 19.246L18.0827 20.606C18.276 20.762 18.5471 20.749 18.7125 20.572L20.2365 18.987C20.4106 18.811 20.424 18.529 20.274 18.327L18.9664 16.577C18.8481 16.419 18.8317 16.202 18.926 16.027C19.2221 15.476 19.4606 14.879 19.6337 14.253C19.6865 14.061 19.8442 13.92 20.0346 13.895L22.15 13.615C22.3914 13.584 22.5769 13.367 22.5769 13.12V10.88C22.5769 10.633 22.3914 10.416 22.1548 10.387L20.0356 10.106C19.8452 10.081 19.6875 9.94 19.6346 9.748C19.4615 9.122 19.2231 8.525 18.9269 7.974C18.8327 7.799 18.8481 7.582 18.9673 7.424L20.275 5.674C20.426 5.472 20.4125 5.19 20.2433 5.02L18.7192 3.435C18.551 3.253 18.2789 3.239 18.0846 3.396L16.4019 4.756C16.249 4.879 16.0404 4.896 15.8721 4.798C15.3442 4.49 14.7702 4.243 14.1664 4.062C13.9817 4.007 13.8462 3.843 13.8221 3.645L13.5529 1.445C13.5231 1.193 13.3144 1 13.0769 1H10.9231C10.6856 1 10.4769 1.193 10.449 1.439L10.1789 3.643C10.1548 3.841 10.0192 4.005 9.83463 4.061C9.23078 4.241 8.65674 4.489 8.12886 4.796C7.96059 4.895 7.75193 4.877 7.59905 4.755L5.91636 3.395C5.72212 3.238 5.45193 3.252 5.28751 3.428L3.76347 5.014C3.58943 5.19 3.57597 5.472 3.72597 5.674L5.03366 7.424C5.15193 7.582 5.16828 7.799 5.07405 7.974C4.77693 8.525 4.53943 9.122 4.36636 9.748C4.31347 9.94 4.15578 10.081 3.96539 10.106L1.85001 10.386C1.60866 10.416 1.42309 10.633 1.42309 10.88V13.12C1.42309 13.367 1.60866 13.584 1.8452 13.613L3.96443 13.894C4.15482 13.919 4.31251 14.06 4.36539 14.252C4.53847 14.878 4.77693 15.475 5.07309 16.026C5.16732 16.201 5.15193 16.418 5.0327 16.576L3.72501 18.326C3.57405 18.528 3.58751 18.81 3.75674 18.98L5.28078 20.565C5.44905 20.746 5.71924 20.76 5.91539 20.604L7.59809 19.244C7.68559 19.176 7.78943 19.14 7.89424 19.14Z" fill="#006E83"/>
<path d="M12 17C9.34905 17 7.19232 14.757 7.19232 12C7.19232 9.243 9.34905 7 12 7C14.651 7 16.8077 9.243 16.8077 12C16.8077 14.757 14.651 17 12 17ZM12 8C9.87886 8 8.15386 9.794 8.15386 12C8.15386 14.206 9.87886 16 12 16C14.1212 16 15.8462 14.206 15.8462 12C15.8462 9.794 14.1212 8 12 8Z" fill="#006E83"/>
</g>
<defs>
<clipPath id="clip0">
<rect width="23.0769" height="24" fill="white" transform="translate(0.461548)"/>
</clipPath>
</defs>
</svg>
